<?xml version="1.0" standalone="no"?>
<!DOCTYPE svg PUBLIC "-//W3C//DTD SVG 20010904//EN"
 "http://www.w3.org/TR/2001/REC-SVG-20010904/DTD/svg10.dtd">
<svg version="1.0" xmlns="http://www.w3.org/2000/svg"
 width="96.000000pt" height="96.000000pt" viewBox="0 0 96.000000 96.000000"
 preserveAspectRatio="xMidYMid meet">
<metadata>
Created by potrace 1.16, written by Peter Selinger 2001-2019
</metadata>
<g transform="translate(0.000000,96.000000) scale(0.100000,-0.100000)"
fill="#000000" stroke="none">
<path d="M724 769 c-43 -45 -109 -89 -131 -89 -4 0 17 25 47 55 30 30 50 55
44 55 -5 0 -39 -30 -74 -66 -55 -55 -144 -113 -156 -101 -2 2 19 25 46 52 28
27 50 54 50 59 0 6 -48 -38 -108 -97 l-107 -107 -77 0 c-42 0 -80 -4 -83 -10
-3 -5 -20 -10 -36 -10 -36 0 -64 -14 -73 -35 -5 -13 2 -16 38 -14 39 2 57 -5
148 -61 57 -35 122 -75 146 -89 23 -14 42 -28 42 -32 0 -3 -17 -10 -37 -15
-33 -8 -38 -13 -38 -38 0 -16 5 -31 12 -33 7 -3 9 3 6 18 -5 19 -4 20 16 10
22 -12 29 -3 10 16 -9 9 36 22 123 37 3 0 38 -28 78 -63 39 -35 73 -61 76 -58
3 2 -37 43 -87 91 -50 47 -89 86 -85 86 4 0 54 -40 112 -90 88 -75 134 -105
134 -87 0 2 -61 59 -135 127 -74 67 -132 127 -129 132 3 5 13 3 23 -6 25 -23
37 -20 16 4 -22 25 -12 39 16 21 27 -16 37 -6 16 17 -22 24 -10 35 17 17 32
-23 42 -18 18 8 -26 28 -18 42 12 22 33 -24 42 -17 15 11 l-24 27 23 -7 c63
-18 68 -18 50 -4 -9 7 -25 19 -35 26 -16 12 -16 12 7 7 78 -17 83 -18 76 -7
-4 6 -22 14 -41 18 -19 3 -35 11 -35 16 0 7 27 8 75 3 52 -5 75 -3 75 4 0 7
-26 11 -71 11 -87 0 -82 15 8 25 85 8 114 15 108 24 -2 5 -44 2 -92 -5 -48 -7
-89 -11 -91 -10 -2 2 47 21 107 41 61 20 111 41 111 46 0 14 -12 11 -116 -26
-53 -19 -99 -35 -103 -35 -3 0 34 23 83 50 98 55 102 58 94 65 -3 3 -61 -27
-129 -66 -68 -40 -178 -103 -244 -142 -66 -38 -126 -73 -132 -79 -7 -6 -13 -6
-13 -1 0 5 19 27 43 50 30 30 78 57 176 100 108 47 145 69 194 114 34 30 56
58 51 62 -6 3 -33 -17 -60 -44z m-581 -286 c-7 -2 -21 -2 -30 0 -10 3 -4 5 12
5 17 0 24 -2 18 -5z"/>
</g>
</svg>
